<?xml version="1.0" encoding="UTF-8" standalone="no"?>
<!DOCTYPE svg PUBLIC "-//W3C//DTD SVG 1.1//EN"
 "http://www.w3.org/Graphics/SVG/1.1/DTD/svg11.dtd">
<!-- Generated by graphviz version 4.0.0 (20220529.0937)
 -->
<!-- Pages: 1 -->
<svg width="1873pt" height="692pt"
 viewBox="0.00 0.00 1873.33 692.00" xmlns="http://www.w3.org/2000/svg" xmlns:xlink="http://www.w3.org/1999/xlink">
<g id="graph0" class="graph" transform="scale(1 1) rotate(0) translate(4 688)">
<polygon fill="white" stroke="transparent" points="-4,4 -4,-688 1869.33,-688 1869.33,4 -4,4"/>
<!-- [root] aws_db_instance.default (expand) -->
<g id="node1" class="node">
<title>[root] aws_db_instance.default (expand)</title>
<polygon fill="none" stroke="black" points="1207.5,-396 1052.5,-396 1052.5,-360 1207.5,-360 1207.5,-396"/>
<text text-anchor="middle" x="1130" y="-374.3" font-family="Times New Roman,serif" font-size="14.00">aws_db_instance.default</text>
</g>
<!-- [root] aws_db_subnet_group.database (expand) -->
<g id="node2" class="node">
<title>[root] aws_db_subnet_group.database (expand)</title>
<polygon fill="none" stroke="black" points="1290,-324 1092,-324 1092,-288 1290,-288 1290,-324"/>
<text text-anchor="middle" x="1191" y="-302.3" font-family="Times New Roman,serif" font-size="14.00">aws_db_subnet_group.database</text>
</g>
<!-- [root] aws_db_instance.default (expand)&#45;&gt;[root] aws_db_subnet_group.database (expand) -->
<g id="edge1" class="edge">
<title>[root] aws_db_instance.default (expand)&#45;&gt;[root] aws_db_subnet_group.database (expand)</title>
<path fill="none" stroke="black" d="M1145.08,-359.7C1152.39,-351.3 1161.31,-341.07 1169.34,-331.86"/>
<polygon fill="black" stroke="black" points="1172.16,-333.94 1176.09,-324.1 1166.89,-329.34 1172.16,-333.94"/>
</g>
<!-- [root] aws_security_group.db_sg (expand) -->
<g id="node22" class="node">
<title>[root] aws_security_group.db_sg (expand)</title>
<polygon fill="none" stroke="black" points="1073.5,-324 904.5,-324 904.5,-288 1073.5,-288 1073.5,-324"/>
<text text-anchor="middle" x="989" y="-302.3" font-family="Times New Roman,serif" font-size="14.00">aws_security_group.db_sg</text>
</g>
<!-- [root] aws_db_instance.default (expand)&#45;&gt;[root] aws_security_group.db_sg (expand) -->
<g id="edge2" class="edge">
<title>[root] aws_db_instance.default (expand)&#45;&gt;[root] aws_security_group.db_sg (expand)</title>
<path fill="none" stroke="black" d="M1095.51,-359.88C1076.56,-350.47 1052.87,-338.71 1032.64,-328.67"/>
<polygon fill="black" stroke="black" points="1034.14,-325.5 1023.63,-324.19 1031.03,-331.77 1034.14,-325.5"/>
</g>
<!-- [root] local.db_pass (expand) -->
<g id="node32" class="node">
<title>[root] local.db_pass (expand)</title>
<ellipse fill="none" stroke="black" cx="1466" cy="-306" rx="119.68" ry="18"/>
<text text-anchor="middle" x="1466" y="-302.3" font-family="Times New Roman,serif" font-size="14.00">[root] local.db_pass (expand)</text>
</g>
<!-- [root] aws_db_instance.default (expand)&#45;&gt;[root] local.db_pass (expand) -->
<g id="edge3" class="edge">
<title>[root] aws_db_instance.default (expand)&#45;&gt;[root] local.db_pass (expand)</title>
<path fill="none" stroke="black" d="M1207.51,-360.85C1262.06,-349.49 1334.76,-334.34 1389.16,-323.01"/>
<polygon fill="black" stroke="black" points="1390.02,-326.4 1399.1,-320.94 1388.59,-319.55 1390.02,-326.4"/>
</g>
<!-- [root] aws_subnet.private&#45;subnet&#45;1 (expand) -->
<g id="node24" class="node">
<title>[root] aws_subnet.private&#45;subnet&#45;1 (expand)</title>
<polygon fill="none" stroke="black" points="1096,-252 920,-252 920,-216 1096,-216 1096,-252"/>
<text text-anchor="middle" x="1008" y="-230.3" font-family="Times New Roman,serif" font-size="14.00">aws_subnet.private&#45;subnet&#45;1</text>
</g>
<!-- [root] aws_db_subnet_group.database (expand)&#45;&gt;[root] aws_subnet.private&#45;subnet&#45;1 (expand) -->
<g id="edge4" class="edge">
<title>[root] aws_db_subnet_group.database (expand)&#45;&gt;[root] aws_subnet.private&#45;subnet&#45;1 (expand)</title>
<path fill="none" stroke="black" d="M1146.23,-287.88C1120.88,-278.18 1088.99,-265.98 1062.23,-255.74"/>
<polygon fill="black" stroke="black" points="1063.21,-252.37 1052.62,-252.07 1060.71,-258.91 1063.21,-252.37"/>
</g>
<!-- [root] aws_subnet.private&#45;subnet&#45;2 (expand) -->
<g id="node25" class="node">
<title>[root] aws_subnet.private&#45;subnet&#45;2 (expand)</title>
<polygon fill="none" stroke="black" points="1290,-252 1114,-252 1114,-216 1290,-216 1290,-252"/>
<text text-anchor="middle" x="1202" y="-230.3" font-family="Times New Roman,serif" font-size="14.00">aws_subnet.private&#45;subnet&#45;2</text>
</g>
<!-- [root] aws_db_subnet_group.database (expand)&#45;&gt;[root] aws_subnet.private&#45;subnet&#45;2 (expand) -->
<g id="edge5" class="edge">
<title>[root] aws_db_subnet_group.database (expand)&#45;&gt;[root] aws_subnet.private&#45;subnet&#45;2 (expand)</title>
<path fill="none" stroke="black" d="M1193.72,-287.7C1194.93,-279.98 1196.39,-270.71 1197.74,-262.11"/>
<polygon fill="black" stroke="black" points="1201.22,-262.53 1199.31,-252.1 1194.3,-261.44 1201.22,-262.53"/>
</g>
<!-- [root] aws_ecr_repository.ecr&#45;repo (expand) -->
<g id="node3" class="node">
<title>[root] aws_ecr_repository.ecr&#45;repo (expand)</title>
<polygon fill="none" stroke="black" points="1607.5,-396 1428.5,-396 1428.5,-360 1607.5,-360 1607.5,-396"/>
<text text-anchor="middle" x="1518" y="-374.3" font-family="Times New Roman,serif" font-size="14.00">aws_ecr_repository.ecr&#45;repo</text>
</g>
<!-- [root] provider[&quot;registry.terraform.io/hashicorp/aws&quot;] -->
<g id="node29" class="node">
<title>[root] provider[&quot;registry.terraform.io/hashicorp/aws&quot;]</title>
<polygon fill="none" stroke="black" points="1026,-36 768.77,-18 1026,0 1283.23,-18 1026,-36"/>
<text text-anchor="middle" x="1026" y="-14.3" font-family="Times New Roman,serif" font-size="14.00">provider[&quot;registry.terraform.io/hashicorp/aws&quot;]</text>
</g>
<!-- [root] aws_ecr_repository.ecr&#45;repo (expand)&#45;&gt;[root] provider[&quot;registry.terraform.io/hashicorp/aws&quot;] -->
<g id="edge6" class="edge">
<title>[root] aws_ecr_repository.ecr&#45;repo (expand)&#45;&gt;[root] provider[&quot;registry.terraform.io/hashicorp/aws&quot;]</title>
<path fill="none" stroke="black" d="M1550.63,-359.94C1565.64,-350.84 1582.77,-338.52 1595,-324 1623.05,-290.69 1636,-278.55 1636,-235 1636,-235 1636,-235 1636,-161 1636,-70.02 1375.37,-37.31 1194.83,-25.56"/>
<polygon fill="black" stroke="black" points="1194.88,-22.06 1184.68,-24.92 1194.44,-29.04 1194.88,-22.06"/>
</g>
<!-- [root] aws_ecs_cluster.ecs (expand) -->
<g id="node4" class="node">
<title>[root] aws_ecs_cluster.ecs (expand)</title>
<polygon fill="none" stroke="black" points="1795.5,-108 1664.5,-108 1664.5,-72 1795.5,-72 1795.5,-108"/>
<text text-anchor="middle" x="1730" y="-86.3" font-family="Times New Roman,serif" font-size="14.00">aws_ecs_cluster.ecs</text>
</g>
<!-- [root] aws_ecs_cluster.ecs (expand)&#45;&gt;[root] provider[&quot;registry.terraform.io/hashicorp/aws&quot;] -->
<g id="edge7" class="edge">
<title>[root] aws_ecs_cluster.ecs (expand)&#45;&gt;[root] provider[&quot;registry.terraform.io/hashicorp/aws&quot;]</title>
<path fill="none" stroke="black" d="M1664.2,-74.34C1659.4,-73.48 1654.64,-72.69 1650,-72 1490.05,-48.31 1305.34,-34.26 1178.63,-26.64"/>
<polygon fill="black" stroke="black" points="1178.66,-23.13 1168.47,-26.03 1178.24,-30.12 1178.66,-23.13"/>
</g>
<!-- [root] aws_ecs_service.wp (expand) -->
<g id="node5" class="node">
<title>[root] aws_ecs_service.wp (expand)</title>
<polygon fill="none" stroke="black" points="1248,-540 1116,-540 1116,-504 1248,-504 1248,-540"/>
<text text-anchor="middle" x="1182" y="-518.3" font-family="Times New Roman,serif" font-size="14.00">aws_ecs_service.wp</text>
</g>
<!-- [root] aws_ecs_service.wp (expand)&#45;&gt;[root] aws_ecs_cluster.ecs (expand) -->
<g id="edge8" class="edge">
<title>[root] aws_ecs_service.wp (expand)&#45;&gt;[root] aws_ecs_cluster.ecs (expand)</title>
<path fill="none" stroke="black" d="M1248.32,-514.68C1350.74,-504.5 1538.43,-483.98 1565,-468 1691.96,-391.65 1721.5,-191.65 1728.14,-118.39"/>
<polygon fill="black" stroke="black" points="1731.65,-118.4 1729,-108.15 1724.68,-117.82 1731.65,-118.4"/>
</g>
<!-- [root] aws_ecs_task_definition.wp (expand) -->
<g id="node6" class="node">
<title>[root] aws_ecs_task_definition.wp (expand)</title>
<polygon fill="none" stroke="black" points="1269.5,-468 1094.5,-468 1094.5,-432 1269.5,-432 1269.5,-468"/>
<text text-anchor="middle" x="1182" y="-446.3" font-family="Times New Roman,serif" font-size="14.00">aws_ecs_task_definition.wp</text>
</g>
<!-- [root] aws_ecs_service.wp (expand)&#45;&gt;[root] aws_ecs_task_definition.wp (expand) -->
<g id="edge9" class="edge">
<title>[root] aws_ecs_service.wp (expand)&#45;&gt;[root] aws_ecs_task_definition.wp (expand)</title>
<path fill="none" stroke="black" d="M1182,-503.7C1182,-495.98 1182,-486.71 1182,-478.11"/>
<polygon fill="black" stroke="black" points="1185.5,-478.1 1182,-468.1 1178.5,-478.1 1185.5,-478.1"/>
</g>
<!-- [root] aws_iam_role_policy.wp&#45;service&#45;role_policy (expand) -->
<g id="node9" class="node">
<title>[root] aws_iam_role_policy.wp&#45;service&#45;role_policy (expand)</title>
<polygon fill="none" stroke="black" points="1556,-468 1288,-468 1288,-432 1556,-432 1556,-468"/>
<text text-anchor="middle" x="1422" y="-446.3" font-family="Times New Roman,serif" font-size="14.00">aws_iam_role_policy.wp&#45;service&#45;role_policy</text>
</g>
<!-- [root] aws_ecs_service.wp (expand)&#45;&gt;[root] aws_iam_role_policy.wp&#45;service&#45;role_policy (expand) -->
<g id="edge10" class="edge">
<title>[root] aws_ecs_service.wp (expand)&#45;&gt;[root] aws_iam_role_policy.wp&#45;service&#45;role_policy (expand)</title>
<path fill="none" stroke="black" d="M1240.4,-503.97C1274.52,-494.01 1317.75,-481.41 1353.47,-470.99"/>
<polygon fill="black" stroke="black" points="1354.71,-474.27 1363.33,-468.11 1352.75,-467.55 1354.71,-474.27"/>
</g>
<!-- [root] aws_lb_target_group.alb (expand) -->
<g id="node13" class="node">
<title>[root] aws_lb_target_group.alb (expand)</title>
<polygon fill="none" stroke="black" points="715.5,-252 560.5,-252 560.5,-216 715.5,-216 715.5,-252"/>
<text text-anchor="middle" x="638" y="-230.3" font-family="Times New Roman,serif" font-size="14.00">aws_lb_target_group.alb</text>
</g>
<!-- [root] aws_ecs_service.wp (expand)&#45;&gt;[root] aws_lb_target_group.alb (expand) -->
<g id="edge11" class="edge">
<title>[root] aws_ecs_service.wp (expand)&#45;&gt;[root] aws_lb_target_group.alb (expand)</title>
<path fill="none" stroke="black" d="M1150.62,-503.92C1064.8,-457.26 827.36,-328.4 748,-288 726.96,-277.29 703.41,-265.87 683.52,-256.38"/>
<polygon fill="black" stroke="black" points="684.9,-253.16 674.36,-252.03 681.89,-259.48 684.9,-253.16"/>
</g>
<!-- [root] aws_ecs_task_definition.wp (expand)&#45;&gt;[root] aws_db_instance.default (expand) -->
<g id="edge12" class="edge">
<title>[root] aws_ecs_task_definition.wp (expand)&#45;&gt;[root] aws_db_instance.default (expand)</title>
<path fill="none" stroke="black" d="M1169.15,-431.7C1162.97,-423.39 1155.46,-413.28 1148.68,-404.14"/>
<polygon fill="black" stroke="black" points="1151.48,-402.04 1142.71,-396.1 1145.86,-406.22 1151.48,-402.04"/>
</g>
<!-- [root] aws_ecs_task_definition.wp (expand)&#45;&gt;[root] aws_ecr_repository.ecr&#45;repo (expand) -->
<g id="edge13" class="edge">
<title>[root] aws_ecs_task_definition.wp (expand)&#45;&gt;[root] aws_ecr_repository.ecr&#45;repo (expand)</title>
<path fill="none" stroke="black" d="M1263.77,-431.97C1312.84,-421.74 1375.39,-408.71 1426.17,-398.13"/>
<polygon fill="black" stroke="black" points="1427.08,-401.52 1436.16,-396.05 1425.66,-394.66 1427.08,-401.52"/>
</g>
<!-- [root] aws_iam_role.wp&#45;service&#45;role (expand) -->
<g id="node8" class="node">
<title>[root] aws_iam_role.wp&#45;service&#45;role (expand)</title>
<polygon fill="none" stroke="black" points="1410,-396 1226,-396 1226,-360 1410,-360 1410,-396"/>
<text text-anchor="middle" x="1318" y="-374.3" font-family="Times New Roman,serif" font-size="14.00">aws_iam_role.wp&#45;service&#45;role</text>
</g>
<!-- [root] aws_ecs_task_definition.wp (expand)&#45;&gt;[root] aws_iam_role.wp&#45;service&#45;role (expand) -->
<g id="edge14" class="edge">
<title>[root] aws_ecs_task_definition.wp (expand)&#45;&gt;[root] aws_iam_role.wp&#45;service&#45;role (expand)</title>
<path fill="none" stroke="black" d="M1215.27,-431.88C1233.46,-422.51 1256.19,-410.81 1275.64,-400.8"/>
<polygon fill="black" stroke="black" points="1277.31,-403.88 1284.6,-396.19 1274.11,-397.65 1277.31,-403.88"/>
</g>
<!-- [root] aws_eip.wp_eip_1 (expand) -->
<g id="node7" class="node">
<title>[root] aws_eip.wp_eip_1 (expand)</title>
<polygon fill="none" stroke="black" points="409,-108 287,-108 287,-72 409,-72 409,-108"/>
<text text-anchor="middle" x="348" y="-86.3" font-family="Times New Roman,serif" font-size="14.00">aws_eip.wp_eip_1</text>
</g>
<!-- [root] aws_eip.wp_eip_1 (expand)&#45;&gt;[root] provider[&quot;registry.terraform.io/hashicorp/aws&quot;] -->
<g id="edge15" class="edge">
<title>[root] aws_eip.wp_eip_1 (expand)&#45;&gt;[root] provider[&quot;registry.terraform.io/hashicorp/aws&quot;]</title>
<path fill="none" stroke="black" d="M409.06,-82.7C523.9,-70.84 773.38,-45.08 917.44,-30.21"/>
<polygon fill="black" stroke="black" points="918.04,-33.67 927.63,-29.16 917.32,-26.7 918.04,-33.67"/>
</g>
<!-- [root] aws_iam_role.wp&#45;service&#45;role (expand)&#45;&gt;[root] provider[&quot;registry.terraform.io/hashicorp/aws&quot;] -->
<g id="edge16" class="edge">
<title>[root] aws_iam_role.wp&#45;service&#45;role (expand)&#45;&gt;[root] provider[&quot;registry.terraform.io/hashicorp/aws&quot;]</title>
<path fill="none" stroke="black" d="M1321.96,-359.86C1328.44,-327 1337.06,-254.96 1299,-216 1219.32,-134.44 1124.68,-261.56 1045,-180 1010.42,-144.6 1014.38,-81.89 1020.25,-46.07"/>
<polygon fill="black" stroke="black" points="1023.75,-46.35 1022.09,-35.88 1016.87,-45.1 1023.75,-46.35"/>
</g>
<!-- [root] aws_iam_role_policy.wp&#45;service&#45;role_policy (expand)&#45;&gt;[root] aws_ecr_repository.ecr&#45;repo (expand) -->
<g id="edge17" class="edge">
<title>[root] aws_iam_role_policy.wp&#45;service&#45;role_policy (expand)&#45;&gt;[root] aws_ecr_repository.ecr&#45;repo (expand)</title>
<path fill="none" stroke="black" d="M1445.73,-431.7C1457.94,-422.8 1472.99,-411.82 1486.18,-402.2"/>
<polygon fill="black" stroke="black" points="1488.52,-404.82 1494.54,-396.1 1484.4,-399.17 1488.52,-404.82"/>
</g>
<!-- [root] aws_iam_role_policy.wp&#45;service&#45;role_policy (expand)&#45;&gt;[root] aws_iam_role.wp&#45;service&#45;role (expand) -->
<g id="edge18" class="edge">
<title>[root] aws_iam_role_policy.wp&#45;service&#45;role_policy (expand)&#45;&gt;[root] aws_iam_role.wp&#45;service&#45;role (expand)</title>
<path fill="none" stroke="black" d="M1396.56,-431.88C1383.21,-422.89 1366.68,-411.76 1352.22,-402.03"/>
<polygon fill="black" stroke="black" points="1353.79,-398.87 1343.54,-396.19 1349.88,-404.68 1353.79,-398.87"/>
</g>
<!-- [root] aws_internet_gateway.igw (expand) -->
<g id="node10" class="node">
<title>[root] aws_internet_gateway.igw (expand)</title>
<polygon fill="none" stroke="black" points="492,-180 330,-180 330,-144 492,-144 492,-180"/>
<text text-anchor="middle" x="411" y="-158.3" font-family="Times New Roman,serif" font-size="14.00">aws_internet_gateway.igw</text>
</g>
<!-- [root] aws_vpc.main (expand) -->
<g id="node28" class="node">
<title>[root] aws_vpc.main (expand)</title>
<polygon fill="none" stroke="black" points="777.5,-108 680.5,-108 680.5,-72 777.5,-72 777.5,-108"/>
<text text-anchor="middle" x="729" y="-86.3" font-family="Times New Roman,serif" font-size="14.00">aws_vpc.main</text>
</g>
<!-- [root] aws_internet_gateway.igw (expand)&#45;&gt;[root] aws_vpc.main (expand) -->
<g id="edge19" class="edge">
<title>[root] aws_internet_gateway.igw (expand)&#45;&gt;[root] aws_vpc.main (expand)</title>
<path fill="none" stroke="black" d="M488.38,-143.97C544.4,-131.64 618.96,-115.22 670.15,-103.95"/>
<polygon fill="black" stroke="black" points="671.05,-107.34 680.07,-101.77 669.55,-100.5 671.05,-107.34"/>
</g>
<!-- [root] aws_lb.alb (expand) -->
<g id="node11" class="node">
<title>[root] aws_lb.alb (expand)</title>
<polygon fill="none" stroke="black" points="503.5,-252 426.5,-252 426.5,-216 503.5,-216 503.5,-252"/>
<text text-anchor="middle" x="465" y="-230.3" font-family="Times New Roman,serif" font-size="14.00">aws_lb.alb</text>
</g>
<!-- [root] aws_lb.alb (expand)&#45;&gt;[root] aws_internet_gateway.igw (expand) -->
<g id="edge20" class="edge">
<title>[root] aws_lb.alb (expand)&#45;&gt;[root] aws_internet_gateway.igw (expand)</title>
<path fill="none" stroke="black" d="M451.65,-215.7C445.24,-207.39 437.44,-197.28 430.39,-188.14"/>
<polygon fill="black" stroke="black" points="433.07,-185.88 424.19,-180.1 427.53,-190.16 433.07,-185.88"/>
</g>
<!-- [root] aws_security_group.alb_sg (expand) -->
<g id="node21" class="node">
<title>[root] aws_security_group.alb_sg (expand)</title>
<polygon fill="none" stroke="black" points="870,-180 700,-180 700,-144 870,-144 870,-180"/>
<text text-anchor="middle" x="785" y="-158.3" font-family="Times New Roman,serif" font-size="14.00">aws_security_group.alb_sg</text>
</g>
<!-- [root] aws_lb.alb (expand)&#45;&gt;[root] aws_security_group.alb_sg (expand) -->
<g id="edge21" class="edge">
<title>[root] aws_lb.alb (expand)&#45;&gt;[root] aws_security_group.alb_sg (expand)</title>
<path fill="none" stroke="black" d="M503.6,-224.56C551.25,-214.13 633.76,-196.08 697.15,-182.22"/>
<polygon fill="black" stroke="black" points="698.13,-185.59 707.15,-180.03 696.63,-178.75 698.13,-185.59"/>
</g>
<!-- [root] aws_subnet.subnet&#45;1 (expand) -->
<g id="node26" class="node">
<title>[root] aws_subnet.subnet&#45;1 (expand)</title>
<polygon fill="none" stroke="black" points="312,-180 178,-180 178,-144 312,-144 312,-180"/>
<text text-anchor="middle" x="245" y="-158.3" font-family="Times New Roman,serif" font-size="14.00">aws_subnet.subnet&#45;1</text>
</g>
<!-- [root] aws_lb.alb (expand)&#45;&gt;[root] aws_subnet.subnet&#45;1 (expand) -->
<g id="edge22" class="edge">
<title>[root] aws_lb.alb (expand)&#45;&gt;[root] aws_subnet.subnet&#45;1 (expand)</title>
<path fill="none" stroke="black" d="M426.27,-219.13C423.14,-218.06 420.02,-217 417,-216 382.59,-204.61 344.05,-192.66 312.18,-183"/>
<polygon fill="black" stroke="black" points="313.11,-179.62 302.52,-180.07 311.08,-186.32 313.11,-179.62"/>
</g>
<!-- [root] aws_subnet.subnet&#45;2 (expand) -->
<g id="node27" class="node">
<title>[root] aws_subnet.subnet&#45;2 (expand)</title>
<polygon fill="none" stroke="black" points="644,-180 510,-180 510,-144 644,-144 644,-180"/>
<text text-anchor="middle" x="577" y="-158.3" font-family="Times New Roman,serif" font-size="14.00">aws_subnet.subnet&#45;2</text>
</g>
<!-- [root] aws_lb.alb (expand)&#45;&gt;[root] aws_subnet.subnet&#45;2 (expand) -->
<g id="edge23" class="edge">
<title>[root] aws_lb.alb (expand)&#45;&gt;[root] aws_subnet.subnet&#45;2 (expand)</title>
<path fill="none" stroke="black" d="M492.4,-215.88C506.91,-206.81 524.92,-195.55 540.59,-185.76"/>
<polygon fill="black" stroke="black" points="542.87,-188.46 549.5,-180.19 539.16,-182.52 542.87,-188.46"/>
</g>
<!-- [root] aws_lb_listener.wordpress (expand) -->
<g id="node12" class="node">
<title>[root] aws_lb_listener.wordpress (expand)</title>
<polygon fill="none" stroke="black" points="739,-324 573,-324 573,-288 739,-288 739,-324"/>
<text text-anchor="middle" x="656" y="-302.3" font-family="Times New Roman,serif" font-size="14.00">aws_lb_listener.wordpress</text>
</g>
<!-- [root] aws_lb_listener.wordpress (expand)&#45;&gt;[root] aws_lb.alb (expand) -->
<g id="edge24" class="edge">
<title>[root] aws_lb_listener.wordpress (expand)&#45;&gt;[root] aws_lb.alb (expand)</title>
<path fill="none" stroke="black" d="M609.28,-287.88C580.1,-277.18 542.63,-263.45 513.19,-252.66"/>
<polygon fill="black" stroke="black" points="514.13,-249.28 503.53,-249.12 511.72,-255.85 514.13,-249.28"/>
</g>
<!-- [root] aws_lb_listener.wordpress (expand)&#45;&gt;[root] aws_lb_target_group.alb (expand) -->
<g id="edge25" class="edge">
<title>[root] aws_lb_listener.wordpress (expand)&#45;&gt;[root] aws_lb_target_group.alb (expand)</title>
<path fill="none" stroke="black" d="M651.55,-287.7C649.55,-279.9 647.13,-270.51 644.9,-261.83"/>
<polygon fill="black" stroke="black" points="648.28,-260.92 642.4,-252.1 641.5,-262.66 648.28,-260.92"/>
</g>
<!-- [root] aws_lb_target_group.alb (expand)&#45;&gt;[root] aws_vpc.main (expand) -->
<g id="edge26" class="edge">
<title>[root] aws_lb_target_group.alb (expand)&#45;&gt;[root] aws_vpc.main (expand)</title>
<path fill="none" stroke="black" d="M647.74,-215.67C658.06,-197.54 675.04,-168.38 691,-144 696.95,-134.91 703.78,-125.18 710,-116.57"/>
<polygon fill="black" stroke="black" points="712.89,-118.55 715.95,-108.41 707.23,-114.43 712.89,-118.55"/>
</g>
<!-- [root] aws_nat_gateway.wp_nat_1 (expand) -->
<g id="node14" class="node">
<title>[root] aws_nat_gateway.wp_nat_1 (expand)</title>
<polygon fill="none" stroke="black" points="270,-252 96,-252 96,-216 270,-216 270,-252"/>
<text text-anchor="middle" x="183" y="-230.3" font-family="Times New Roman,serif" font-size="14.00">aws_nat_gateway.wp_nat_1</text>
</g>
<!-- [root] aws_nat_gateway.wp_nat_1 (expand)&#45;&gt;[root] aws_eip.wp_eip_1 (expand) -->
<g id="edge27" class="edge">
<title>[root] aws_nat_gateway.wp_nat_1 (expand)&#45;&gt;[root] aws_eip.wp_eip_1 (expand)</title>
<path fill="none" stroke="black" d="M173.43,-215.8C164.09,-196.43 153.37,-164.93 169,-144 182.34,-126.14 233.05,-112.16 277.11,-103.06"/>
<polygon fill="black" stroke="black" points="277.85,-106.48 286.97,-101.08 276.47,-99.62 277.85,-106.48"/>
</g>
<!-- [root] aws_nat_gateway.wp_nat_1 (expand)&#45;&gt;[root] aws_internet_gateway.igw (expand) -->
<g id="edge28" class="edge">
<title>[root] aws_nat_gateway.wp_nat_1 (expand)&#45;&gt;[root] aws_internet_gateway.igw (expand)</title>
<path fill="none" stroke="black" d="M238.48,-215.97C270.76,-206.06 311.61,-193.51 345.46,-183.12"/>
<polygon fill="black" stroke="black" points="346.74,-186.39 355.27,-180.11 344.68,-179.7 346.74,-186.39"/>
</g>
<!-- [root] aws_nat_gateway.wp_nat_1 (expand)&#45;&gt;[root] aws_subnet.subnet&#45;1 (expand) -->
<g id="edge29" class="edge">
<title>[root] aws_nat_gateway.wp_nat_1 (expand)&#45;&gt;[root] aws_subnet.subnet&#45;1 (expand)</title>
<path fill="none" stroke="black" d="M198.33,-215.7C205.76,-207.3 214.82,-197.07 222.98,-187.86"/>
<polygon fill="black" stroke="black" points="225.84,-189.91 229.85,-180.1 220.6,-185.27 225.84,-189.91"/>
</g>
<!-- [root] aws_route_table.nat&#45;rt (expand) -->
<g id="node15" class="node">
<title>[root] aws_route_table.nat&#45;rt (expand)</title>
<polygon fill="none" stroke="black" points="554.5,-324 413.5,-324 413.5,-288 554.5,-288 554.5,-324"/>
<text text-anchor="middle" x="484" y="-302.3" font-family="Times New Roman,serif" font-size="14.00">aws_route_table.nat&#45;rt</text>
</g>
<!-- [root] aws_route_table.nat&#45;rt (expand)&#45;&gt;[root] aws_nat_gateway.wp_nat_1 (expand) -->
<g id="edge30" class="edge">
<title>[root] aws_route_table.nat&#45;rt (expand)&#45;&gt;[root] aws_nat_gateway.wp_nat_1 (expand)</title>
<path fill="none" stroke="black" d="M413.43,-288.59C369.4,-278.35 312.5,-265.12 266.27,-254.36"/>
<polygon fill="black" stroke="black" points="266.8,-250.9 256.27,-252.04 265.22,-257.71 266.8,-250.9"/>
</g>
<!-- [root] aws_route_table.rt (expand) -->
<g id="node16" class="node">
<title>[root] aws_route_table.rt (expand)</title>
<polygon fill="none" stroke="black" points="408,-252 288,-252 288,-216 408,-216 408,-252"/>
<text text-anchor="middle" x="348" y="-230.3" font-family="Times New Roman,serif" font-size="14.00">aws_route_table.rt</text>
</g>
<!-- [root] aws_route_table.rt (expand)&#45;&gt;[root] aws_internet_gateway.igw (expand) -->
<g id="edge31" class="edge">
<title>[root] aws_route_table.rt (expand)&#45;&gt;[root] aws_internet_gateway.igw (expand)</title>
<path fill="none" stroke="black" d="M363.57,-215.7C371.2,-207.22 380.52,-196.86 388.88,-187.58"/>
<polygon fill="black" stroke="black" points="391.52,-189.88 395.61,-180.1 386.31,-185.2 391.52,-189.88"/>
</g>
<!-- [root] aws_route_table_association.a (expand) -->
<g id="node17" class="node">
<title>[root] aws_route_table_association.a (expand)</title>
<polygon fill="none" stroke="black" points="188,-324 0,-324 0,-288 188,-288 188,-324"/>
<text text-anchor="middle" x="94" y="-302.3" font-family="Times New Roman,serif" font-size="14.00">aws_route_table_association.a</text>
</g>
<!-- [root] aws_route_table_association.a (expand)&#45;&gt;[root] aws_route_table.rt (expand) -->
<g id="edge32" class="edge">
<title>[root] aws_route_table_association.a (expand)&#45;&gt;[root] aws_route_table.rt (expand)</title>
<path fill="none" stroke="black" d="M155.81,-287.97C192.61,-277.82 239.43,-264.92 277.64,-254.39"/>
<polygon fill="black" stroke="black" points="278.96,-257.66 287.67,-251.63 277.1,-250.91 278.96,-257.66"/>
</g>
<!-- [root] aws_route_table_association.a (expand)&#45;&gt;[root] aws_subnet.subnet&#45;1 (expand) -->
<g id="edge33" class="edge">
<title>[root] aws_route_table_association.a (expand)&#45;&gt;[root] aws_subnet.subnet&#45;1 (expand)</title>
<path fill="none" stroke="black" d="M86.57,-287.83C79.47,-268.48 71.89,-237.01 87,-216 105.59,-190.15 137.4,-176.73 167.63,-169.83"/>
<polygon fill="black" stroke="black" points="168.71,-173.18 177.8,-167.73 167.3,-166.33 168.71,-173.18"/>
</g>
<!-- [root] aws_route_table_association.b (expand) -->
<g id="node18" class="node">
<title>[root] aws_route_table_association.b (expand)</title>
<polygon fill="none" stroke="black" points="395.5,-324 206.5,-324 206.5,-288 395.5,-288 395.5,-324"/>
<text text-anchor="middle" x="301" y="-302.3" font-family="Times New Roman,serif" font-size="14.00">aws_route_table_association.b</text>
</g>
<!-- [root] aws_route_table_association.b (expand)&#45;&gt;[root] aws_route_table.rt (expand) -->
<g id="edge34" class="edge">
<title>[root] aws_route_table_association.b (expand)&#45;&gt;[root] aws_route_table.rt (expand)</title>
<path fill="none" stroke="black" d="M312.62,-287.7C318.14,-279.47 324.85,-269.48 330.93,-260.42"/>
<polygon fill="black" stroke="black" points="333.85,-262.36 336.52,-252.1 328.04,-258.46 333.85,-262.36"/>
</g>
<!-- [root] aws_route_table_association.b (expand)&#45;&gt;[root] aws_subnet.subnet&#45;2 (expand) -->
<g id="edge35" class="edge">
<title>[root] aws_route_table_association.b (expand)&#45;&gt;[root] aws_subnet.subnet&#45;2 (expand)</title>
<path fill="none" stroke="black" d="M394.55,-287.99C441.46,-278.19 492.39,-265.22 512,-252 535.29,-236.31 553.23,-209.36 564.31,-189.21"/>
<polygon fill="black" stroke="black" points="567.48,-190.71 569.05,-180.23 561.29,-187.44 567.48,-190.71"/>
</g>
<!-- [root] aws_route_table_association.nat_a (expand) -->
<g id="node19" class="node">
<title>[root] aws_route_table_association.nat_a (expand)</title>
<polygon fill="none" stroke="black" points="587,-396 375,-396 375,-360 587,-360 587,-396"/>
<text text-anchor="middle" x="481" y="-374.3" font-family="Times New Roman,serif" font-size="14.00">aws_route_table_association.nat_a</text>
</g>
<!-- [root] aws_route_table_association.nat_a (expand)&#45;&gt;[root] aws_route_table.nat&#45;rt (expand) -->
<g id="edge36" class="edge">
<title>[root] aws_route_table_association.nat_a (expand)&#45;&gt;[root] aws_route_table.nat&#45;rt (expand)</title>
<path fill="none" stroke="black" d="M481.74,-359.7C482.07,-351.98 482.47,-342.71 482.84,-334.11"/>
<polygon fill="black" stroke="black" points="486.34,-334.25 483.27,-324.1 479.34,-333.95 486.34,-334.25"/>
</g>
<!-- [root] aws_route_table_association.nat_a (expand)&#45;&gt;[root] aws_subnet.private&#45;subnet&#45;1 (expand) -->
<g id="edge37" class="edge">
<title>[root] aws_route_table_association.nat_a (expand)&#45;&gt;[root] aws_subnet.private&#45;subnet&#45;1 (expand)</title>
<path fill="none" stroke="black" d="M585.31,-359.99C646.92,-349.23 718.47,-335.27 748,-324 777.41,-312.78 779.96,-300.16 809,-288 842.16,-274.11 879.98,-262.95 913.68,-254.52"/>
<polygon fill="black" stroke="black" points="914.66,-257.89 923.53,-252.11 912.99,-251.09 914.66,-257.89"/>
</g>
<!-- [root] aws_route_table_association.nat_b (expand) -->
<g id="node20" class="node">
<title>[root] aws_route_table_association.nat_b (expand)</title>
<polygon fill="none" stroke="black" points="818.5,-396 605.5,-396 605.5,-360 818.5,-360 818.5,-396"/>
<text text-anchor="middle" x="712" y="-374.3" font-family="Times New Roman,serif" font-size="14.00">aws_route_table_association.nat_b</text>
</g>
<!-- [root] aws_route_table_association.nat_b (expand)&#45;&gt;[root] aws_route_table.nat&#45;rt (expand) -->
<g id="edge38" class="edge">
<title>[root] aws_route_table_association.nat_b (expand)&#45;&gt;[root] aws_route_table.nat&#45;rt (expand)</title>
<path fill="none" stroke="black" d="M656.52,-359.97C624.24,-350.06 583.39,-337.51 549.54,-327.12"/>
<polygon fill="black" stroke="black" points="550.32,-323.7 539.73,-324.11 548.26,-330.39 550.32,-323.7"/>
</g>
<!-- [root] aws_route_table_association.nat_b (expand)&#45;&gt;[root] aws_subnet.private&#45;subnet&#45;2 (expand) -->
<g id="edge39" class="edge">
<title>[root] aws_route_table_association.nat_b (expand)&#45;&gt;[root] aws_subnet.private&#45;subnet&#45;2 (expand)</title>
<path fill="none" stroke="black" d="M740.9,-359.86C776.27,-339.63 838.56,-306.43 896,-288 982.77,-260.15 1010.31,-267.58 1104.07,-252.12"/>
<polygon fill="black" stroke="black" points="1104.7,-255.56 1113.97,-250.44 1103.53,-248.66 1104.7,-255.56"/>
</g>
<!-- [root] aws_security_group.alb_sg (expand)&#45;&gt;[root] aws_vpc.main (expand) -->
<g id="edge40" class="edge">
<title>[root] aws_security_group.alb_sg (expand)&#45;&gt;[root] aws_vpc.main (expand)</title>
<path fill="none" stroke="black" d="M771.16,-143.7C764.51,-135.39 756.42,-125.28 749.11,-116.14"/>
<polygon fill="black" stroke="black" points="751.66,-113.73 742.68,-108.1 746.2,-118.1 751.66,-113.73"/>
</g>
<!-- [root] aws_security_group.vp_sg (expand) -->
<g id="node23" class="node">
<title>[root] aws_security_group.vp_sg (expand)</title>
<polygon fill="none" stroke="black" points="902,-252 734,-252 734,-216 902,-216 902,-252"/>
<text text-anchor="middle" x="818" y="-230.3" font-family="Times New Roman,serif" font-size="14.00">aws_security_group.vp_sg</text>
</g>
<!-- [root] aws_security_group.db_sg (expand)&#45;&gt;[root] aws_security_group.vp_sg (expand) -->
<g id="edge41" class="edge">
<title>[root] aws_security_group.db_sg (expand)&#45;&gt;[root] aws_security_group.vp_sg (expand)</title>
<path fill="none" stroke="black" d="M947.17,-287.88C923.58,-278.22 893.94,-266.09 869,-255.88"/>
<polygon fill="black" stroke="black" points="870.28,-252.62 859.7,-252.07 867.62,-259.1 870.28,-252.62"/>
</g>
<!-- [root] aws_security_group.vp_sg (expand)&#45;&gt;[root] aws_security_group.alb_sg (expand) -->
<g id="edge42" class="edge">
<title>[root] aws_security_group.vp_sg (expand)&#45;&gt;[root] aws_security_group.alb_sg (expand)</title>
<path fill="none" stroke="black" d="M809.84,-215.7C806.09,-207.73 801.55,-198.1 797.38,-189.26"/>
<polygon fill="black" stroke="black" points="800.49,-187.66 793.06,-180.1 794.16,-190.64 800.49,-187.66"/>
</g>
<!-- [root] aws_subnet.private&#45;subnet&#45;1 (expand)&#45;&gt;[root] aws_vpc.main (expand) -->
<g id="edge43" class="edge">
<title>[root] aws_subnet.private&#45;subnet&#45;1 (expand)&#45;&gt;[root] aws_vpc.main (expand)</title>
<path fill="none" stroke="black" d="M986.74,-215.7C962.04,-196.23 919.47,-164.65 879,-144 849.95,-129.18 815.79,-116.75 787.41,-107.67"/>
<polygon fill="black" stroke="black" points="788.22,-104.25 777.63,-104.6 786.12,-110.93 788.22,-104.25"/>
</g>
<!-- [root] aws_subnet.private&#45;subnet&#45;2 (expand)&#45;&gt;[root] aws_vpc.main (expand) -->
<g id="edge44" class="edge">
<title>[root] aws_subnet.private&#45;subnet&#45;2 (expand)&#45;&gt;[root] aws_vpc.main (expand)</title>
<path fill="none" stroke="black" d="M1134.19,-216C1097.69,-206.37 1052.06,-193.56 1012,-180 971.19,-166.19 962.84,-157.73 922,-144 877.55,-129.06 826.34,-115.15 787.84,-105.32"/>
<polygon fill="black" stroke="black" points="788.39,-101.85 777.84,-102.79 786.67,-108.64 788.39,-101.85"/>
</g>
<!-- [root] aws_subnet.subnet&#45;1 (expand)&#45;&gt;[root] aws_vpc.main (expand) -->
<g id="edge45" class="edge">
<title>[root] aws_subnet.subnet&#45;1 (expand)&#45;&gt;[root] aws_vpc.main (expand)</title>
<path fill="none" stroke="black" d="M312.07,-145.65C315.08,-145.07 318.07,-144.52 321,-144 444.53,-122.21 590.58,-105.37 670.12,-96.95"/>
<polygon fill="black" stroke="black" points="670.84,-100.39 680.42,-95.87 670.11,-93.43 670.84,-100.39"/>
</g>
<!-- [root] aws_subnet.subnet&#45;2 (expand)&#45;&gt;[root] aws_vpc.main (expand) -->
<g id="edge46" class="edge">
<title>[root] aws_subnet.subnet&#45;2 (expand)&#45;&gt;[root] aws_vpc.main (expand)</title>
<path fill="none" stroke="black" d="M614.18,-143.88C634.87,-134.35 660.8,-122.41 682.78,-112.28"/>
<polygon fill="black" stroke="black" points="684.32,-115.43 691.94,-108.07 681.39,-109.07 684.32,-115.43"/>
</g>
<!-- [root] aws_vpc.main (expand)&#45;&gt;[root] provider[&quot;registry.terraform.io/hashicorp/aws&quot;] -->
<g id="edge47" class="edge">
<title>[root] aws_vpc.main (expand)&#45;&gt;[root] provider[&quot;registry.terraform.io/hashicorp/aws&quot;]</title>
<path fill="none" stroke="black" d="M777.71,-77.52C827.44,-65.8 904.96,-47.53 960.14,-34.52"/>
<polygon fill="black" stroke="black" points="961.25,-37.86 970.18,-32.16 959.64,-31.04 961.25,-37.86"/>
</g>
<!-- [root] provider[&quot;registry.terraform.io/hashicorp/random&quot;] -->
<g id="node30" class="node">
<title>[root] provider[&quot;registry.terraform.io/hashicorp/random&quot;]</title>
<polygon fill="none" stroke="black" points="1331,-180 1054.17,-162 1331,-144 1607.83,-162 1331,-180"/>
<text text-anchor="middle" x="1331" y="-158.3" font-family="Times New Roman,serif" font-size="14.00">provider[&quot;registry.terraform.io/hashicorp/random&quot;]</text>
</g>
<!-- [root] random_password.password (expand) -->
<g id="node31" class="node">
<title>[root] random_password.password (expand)</title>
<polygon fill="none" stroke="black" points="1556,-252 1376,-252 1376,-216 1556,-216 1556,-252"/>
<text text-anchor="middle" x="1466" y="-230.3" font-family="Times New Roman,serif" font-size="14.00">random_password.password</text>
</g>
<!-- [root] random_password.password (expand)&#45;&gt;[root] provider[&quot;registry.terraform.io/hashicorp/random&quot;] -->
<g id="edge56" class="edge">
<title>[root] random_password.password (expand)&#45;&gt;[root] provider[&quot;registry.terraform.io/hashicorp/random&quot;]</title>
<path fill="none" stroke="black" d="M1432.98,-215.88C1413.75,-205.91 1389.43,-193.29 1369.36,-182.89"/>
<polygon fill="black" stroke="black" points="1370.96,-179.78 1360.47,-178.28 1367.73,-185.99 1370.96,-179.78"/>
</g>
<!-- [root] local.db_pass (expand)&#45;&gt;[root] random_password.password (expand) -->
<g id="edge48" class="edge">
<title>[root] local.db_pass (expand)&#45;&gt;[root] random_password.password (expand)</title>
<path fill="none" stroke="black" d="M1466,-287.7C1466,-279.98 1466,-270.71 1466,-262.11"/>
<polygon fill="black" stroke="black" points="1469.5,-262.1 1466,-252.1 1462.5,-262.1 1469.5,-262.1"/>
</g>
<!-- [root] provider[&quot;registry.terraform.io/hashicorp/aws&quot;] (close) -->
<g id="node33" class="node">
<title>[root] provider[&quot;registry.terraform.io/hashicorp/aws&quot;] (close)</title>
<ellipse fill="none" stroke="black" cx="481" cy="-594" rx="232.86" ry="18"/>
<text text-anchor="middle" x="481" y="-590.3" font-family="Times New Roman,serif" font-size="14.00">[root] provider[&quot;registry.terraform.io/hashicorp/aws&quot;] (close)</text>
</g>
<!-- [root] provider[&quot;registry.terraform.io/hashicorp/aws&quot;] (close)&#45;&gt;[root] aws_ecs_service.wp (expand) -->
<g id="edge49" class="edge">
<title>[root] provider[&quot;registry.terraform.io/hashicorp/aws&quot;] (close)&#45;&gt;[root] aws_ecs_service.wp (expand)</title>
<path fill="none" stroke="black" d="M617.41,-579.38C762.97,-564.84 988.4,-542.33 1105.51,-530.64"/>
<polygon fill="black" stroke="black" points="1106.21,-534.09 1115.81,-529.61 1105.51,-527.12 1106.21,-534.09"/>
</g>
<!-- [root] provider[&quot;registry.terraform.io/hashicorp/aws&quot;] (close)&#45;&gt;[root] aws_lb_listener.wordpress (expand) -->
<g id="edge50" class="edge">
<title>[root] provider[&quot;registry.terraform.io/hashicorp/aws&quot;] (close)&#45;&gt;[root] aws_lb_listener.wordpress (expand)</title>
<path fill="none" stroke="black" d="M460.37,-575.92C413.51,-535.11 307.5,-430.16 366,-360 366,-360 478.15,-339.5 562.96,-324"/>
<polygon fill="black" stroke="black" points="563.69,-327.43 572.9,-322.19 562.43,-320.54 563.69,-327.43"/>
</g>
<!-- [root] provider[&quot;registry.terraform.io/hashicorp/aws&quot;] (close)&#45;&gt;[root] aws_route_table_association.a (expand) -->
<g id="edge51" class="edge">
<title>[root] provider[&quot;registry.terraform.io/hashicorp/aws&quot;] (close)&#45;&gt;[root] aws_route_table_association.a (expand)</title>
<path fill="none" stroke="black" d="M433.51,-576.36C410.2,-567.21 382.2,-554.73 359,-540 259.74,-477 160.39,-377.53 116.85,-331.66"/>
<polygon fill="black" stroke="black" points="119.28,-329.13 109.87,-324.26 114.19,-333.93 119.28,-329.13"/>
</g>
<!-- [root] provider[&quot;registry.terraform.io/hashicorp/aws&quot;] (close)&#45;&gt;[root] aws_route_table_association.b (expand) -->
<g id="edge52" class="edge">
<title>[root] provider[&quot;registry.terraform.io/hashicorp/aws&quot;] (close)&#45;&gt;[root] aws_route_table_association.b (expand)</title>
<path fill="none" stroke="black" d="M442.06,-576.07C424.66,-567.15 404.79,-554.94 390,-540 332.21,-481.65 311.2,-381.87 304.19,-334.08"/>
<polygon fill="black" stroke="black" points="307.66,-333.6 302.83,-324.17 300.72,-334.55 307.66,-333.6"/>
</g>
<!-- [root] provider[&quot;registry.terraform.io/hashicorp/aws&quot;] (close)&#45;&gt;[root] aws_route_table_association.nat_a (expand) -->
<g id="edge53" class="edge">
<title>[root] provider[&quot;registry.terraform.io/hashicorp/aws&quot;] (close)&#45;&gt;[root] aws_route_table_association.nat_a (expand)</title>
<path fill="none" stroke="black" d="M481,-575.85C481,-538.83 481,-451.18 481,-406.39"/>
<polygon fill="black" stroke="black" points="484.5,-406.23 481,-396.23 477.5,-406.23 484.5,-406.23"/>
</g>
<!-- [root] provider[&quot;registry.terraform.io/hashicorp/aws&quot;] (close)&#45;&gt;[root] aws_route_table_association.nat_b (expand) -->
<g id="edge54" class="edge">
<title>[root] provider[&quot;registry.terraform.io/hashicorp/aws&quot;] (close)&#45;&gt;[root] aws_route_table_association.nat_b (expand)</title>
<path fill="none" stroke="black" d="M499.51,-575.85C540.49,-537.89 638.92,-446.7 686.03,-403.06"/>
<polygon fill="black" stroke="black" points="688.44,-405.6 693.4,-396.23 683.68,-400.46 688.44,-405.6"/>
</g>
<!-- [root] provider[&quot;registry.terraform.io/hashicorp/random&quot;] (close) -->
<g id="node34" class="node">
<title>[root] provider[&quot;registry.terraform.io/hashicorp/random&quot;] (close)</title>
<ellipse fill="none" stroke="black" cx="1619" cy="-522" rx="246.16" ry="18"/>
<text text-anchor="middle" x="1619" y="-518.3" font-family="Times New Roman,serif" font-size="14.00">[root] provider[&quot;registry.terraform.io/hashicorp/random&quot;] (close)</text>
</g>
<!-- [root] provider[&quot;registry.terraform.io/hashicorp/random&quot;] (close)&#45;&gt;[root] random_password.password (expand) -->
<g id="edge55" class="edge">
<title>[root] provider[&quot;registry.terraform.io/hashicorp/random&quot;] (close)&#45;&gt;[root] random_password.password (expand)</title>
<path fill="none" stroke="black" d="M1623.28,-503.97C1632.85,-461.42 1651,-349.48 1595,-288 1582.34,-274.1 1565.5,-263.76 1548.18,-256.1"/>
<polygon fill="black" stroke="black" points="1549.1,-252.69 1538.53,-252.11 1546.43,-259.16 1549.1,-252.69"/>
</g>
<!-- [root] root -->
<g id="node35" class="node">
<title>[root] root</title>
<ellipse fill="none" stroke="black" cx="611" cy="-666" rx="49.29" ry="18"/>
<text text-anchor="middle" x="611" y="-662.3" font-family="Times New Roman,serif" font-size="14.00">[root] root</text>
</g>
<!-- [root] root&#45;&gt;[root] provider[&quot;registry.terraform.io/hashicorp/aws&quot;] (close) -->
<g id="edge57" class="edge">
<title>[root] root&#45;&gt;[root] provider[&quot;registry.terraform.io/hashicorp/aws&quot;] (close)</title>
<path fill="none" stroke="black" d="M584.38,-650.67C566.26,-640.91 541.94,-627.82 521.45,-616.78"/>
<polygon fill="black" stroke="black" points="523.09,-613.69 512.63,-612.03 519.78,-619.85 523.09,-613.69"/>
</g>
<!-- [root] root&#45;&gt;[root] provider[&quot;registry.terraform.io/hashicorp/random&quot;] (close) -->
<g id="edge58" class="edge">
<title>[root] root&#45;&gt;[root] provider[&quot;registry.terraform.io/hashicorp/random&quot;] (close)</title>
<path fill="none" stroke="black" d="M656.27,-658.62C804.45,-637.75 1278.21,-571.01 1501.04,-539.62"/>
<polygon fill="black" stroke="black" points="1501.72,-543.06 1511.14,-538.19 1500.75,-536.12 1501.72,-543.06"/>
</g>
</g>
</svg>
